<svg width="25" height="26" viewBox="0 0 25 26" fill="none" xmlns="http://www.w3.org/2000/svg">
<path d="M24.9868 13.2434C24.9868 12.1782 24.9018 11.4009 24.7177 10.5948H12.749V15.4026H19.7744C19.6328 16.5974 18.8679 18.3967 17.1682 19.6058L17.1444 19.7668L20.9286 22.7462L21.1908 22.7728C23.5987 20.5128 24.9868 17.1875 24.9868 13.2434Z" fill="#4285F4"/>
<path d="M12.7491 25.9108C16.1909 25.9108 19.0804 24.7592 21.1909 22.7728L17.1683 19.6058C16.0918 20.3688 14.647 20.9014 12.7491 20.9014C9.37804 20.9014 6.51691 18.6414 5.49699 15.5178L5.3475 15.5307L1.41254 18.6256L1.36108 18.7709C3.45736 23.003 7.76327 25.9108 12.7491 25.9108Z" fill="#34A853"/>
<path d="M5.49685 15.5177C5.22773 14.7116 5.07199 13.8478 5.07199 12.9554C5.07199 12.0629 5.22773 11.1992 5.48269 10.3931L5.47556 10.2214L1.4913 7.07681L1.36094 7.13983C0.49697 8.89602 0.0012207 10.8681 0.0012207 12.9554C0.0012207 15.0426 0.49697 17.0147 1.36094 18.7709L5.49685 15.5177Z" fill="#FBBC05"/>
<path d="M12.7491 5.0094C15.1428 5.0094 16.7574 6.06021 17.6781 6.93836L21.2758 3.36842C19.0663 1.28118 16.1909 3.05176e-05 12.7491 3.05176e-05C7.76325 3.05176e-05 3.45735 2.90776 1.36108 7.13981L5.48283 10.3931C6.5169 7.26941 9.37803 5.0094 12.7491 5.0094Z" fill="#EB4335"/>
</svg>
